<svg width="24" height="25" viewBox="0 0 24 25" fill="none" xmlns="http://www.w3.org/2000/svg">
<g id="eva:arrow-forward-outline">
<path id="Vector" d="M5 13.5H16.86L13.23 17.86C13.146 17.9611 13.0826 18.0778 13.0437 18.2034C13.0047 18.329 12.9909 18.461 13.003 18.5919C13.0274 18.8564 13.1558 19.1003 13.36 19.27C13.5642 19.4397 13.8275 19.5214 14.0919 19.497C14.3563 19.4726 14.6003 19.3442 14.77 19.14L19.77 13.14C19.8036 13.0923 19.8337 13.0421 19.86 12.99C19.86 12.94 19.91 12.91 19.93 12.86C19.9753 12.7453 19.9991 12.6233 20 12.5C19.9991 12.3767 19.9753 12.2547 19.93 12.14C19.93 12.09 19.88 12.06 19.86 12.01C19.8337 11.9579 19.8036 11.9077 19.77 11.86L14.77 5.86C14.676 5.74712 14.5582 5.65634 14.4252 5.59412C14.2921 5.5319 14.1469 5.49976 14 5.5C13.7663 5.49955 13.5399 5.58092 13.36 5.73C13.2587 5.81395 13.175 5.91705 13.1137 6.0334C13.0523 6.14975 13.0145 6.27705 13.0025 6.40803C12.9904 6.53901 13.0043 6.67108 13.0433 6.79668C13.0824 6.92229 13.1458 7.03895 13.23 7.14L16.86 11.5H5C4.73478 11.5 4.48043 11.6054 4.29289 11.7929C4.10536 11.9804 4 12.2348 4 12.5C4 12.7652 4.10536 13.0196 4.29289 13.2071C4.48043 13.3946 4.73478 13.5 5 13.5Z" fill="white"/>
</g>
</svg>
