<svg width="24" height="25" viewBox="0 0 24 25" fill="none" xmlns="http://www.w3.org/2000/svg">
<g id="eva:arrow-forward-outline">
<path id="Vector" d="M5 13.1665H16.86L13.23 17.5265C13.146 17.6276 13.0826 17.7443 13.0437 17.8699C13.0047 17.9955 12.9909 18.1275 13.003 18.2584C13.0274 18.5229 13.1558 18.7668 13.36 18.9365C13.5642 19.1062 13.8275 19.1879 14.0919 19.1635C14.3563 19.1391 14.6003 19.0107 14.77 18.8065L19.77 12.8065C19.8036 12.7588 19.8337 12.7086 19.86 12.6565C19.86 12.6065 19.91 12.5765 19.93 12.5265C19.9753 12.4118 19.9991 12.2898 20 12.1665C19.9991 12.0432 19.9753 11.9212 19.93 11.8065C19.93 11.7565 19.88 11.7265 19.86 11.6765C19.8337 11.6244 19.8036 11.5742 19.77 11.5265L14.77 5.52651C14.676 5.41362 14.5582 5.32284 14.4252 5.26062C14.2921 5.1984 14.1469 5.16627 14 5.16651C13.7663 5.16605 13.5399 5.24742 13.36 5.39651C13.2587 5.48045 13.175 5.58356 13.1137 5.6999C13.0523 5.81625 13.0145 5.94356 13.0025 6.07453C12.9904 6.20551 13.0043 6.33758 13.0433 6.46319C13.0824 6.58879 13.1458 6.70546 13.23 6.80651L16.86 11.1665H5C4.73478 11.1665 4.48043 11.2719 4.29289 11.4594C4.10536 11.6469 4 11.9013 4 12.1665C4 12.4317 4.10536 12.6861 4.29289 12.8736C4.48043 13.0611 4.73478 13.1665 5 13.1665Z" fill="#080609"/>
</g>
</svg>
