<svg width="24" height="25" viewBox="0 0 24 25" fill="none" xmlns="http://www.w3.org/2000/svg">
<g id="ri:instagram-fill">
<path id="Vector" d="M13.028 2.16773C13.7578 2.16493 14.4875 2.17227 15.217 2.18973L15.411 2.19673C15.635 2.20473 15.856 2.21473 16.123 2.22673C17.187 2.27673 17.913 2.44473 18.55 2.69173C19.21 2.94573 19.766 3.28973 20.322 3.84573C20.8304 4.34534 21.2239 4.94968 21.475 5.61673C21.722 6.25373 21.89 6.98073 21.94 8.04473C21.952 8.31073 21.962 8.53273 21.97 8.75673L21.976 8.95073C21.9938 9.67993 22.0015 10.4093 21.999 11.1387L22 11.8847V13.1947C22.0025 13.9245 21.9948 14.6542 21.977 15.3837L21.971 15.5777C21.963 15.8017 21.953 16.0227 21.941 16.2897C21.891 17.3537 21.721 18.0797 21.475 18.7167C21.2247 19.3845 20.8311 19.9893 20.322 20.4887C19.822 20.9971 19.2173 21.3905 18.55 21.6417C17.913 21.8887 17.187 22.0567 16.123 22.1067C15.856 22.1187 15.635 22.1287 15.411 22.1367L15.217 22.1427C14.4875 22.1605 13.7578 22.1682 13.028 22.1657L12.282 22.1667H10.973C10.2433 22.1692 9.51355 22.1615 8.78403 22.1437L8.59003 22.1377C8.35264 22.1291 8.1153 22.1191 7.87803 22.1077C6.81403 22.0577 6.08803 21.8877 5.45003 21.6417C4.78271 21.3911 4.17827 20.9976 3.67903 20.4887C3.17007 19.989 2.77625 19.3843 2.52503 18.7167C2.27803 18.0797 2.11003 17.3537 2.06003 16.2897C2.04889 16.0525 2.03889 15.8151 2.03003 15.5777L2.02503 15.3837C2.00659 14.6542 1.99826 13.9245 2.00003 13.1947V11.1387C1.99724 10.4093 2.00457 9.67993 2.02203 8.95073L2.02903 8.75673C2.03703 8.53273 2.04703 8.31073 2.05903 8.04473C2.10903 6.97973 2.27703 6.25473 2.52403 5.61673C2.7754 4.94935 3.16999 4.34518 3.68003 3.84673C4.17892 3.33749 4.78299 2.94331 5.45003 2.69173C6.08803 2.44473 6.81303 2.27673 7.87803 2.22673L8.59003 2.19673L8.78403 2.19173C9.51321 2.17331 10.2426 2.16497 10.972 2.16673L13.028 2.16773ZM12 7.16773C11.3375 7.15836 10.6798 7.28076 10.065 7.5278C9.45022 7.77485 8.89067 8.14161 8.41887 8.60679C7.94707 9.07197 7.57243 9.62627 7.31671 10.2375C7.061 10.8487 6.92932 11.5047 6.92932 12.1672C6.92932 12.8298 7.061 13.4857 7.31671 14.097C7.57243 14.7082 7.94707 15.2625 8.41887 15.7277C8.89067 16.1929 9.45022 16.5596 10.065 16.8067C10.6798 17.0537 11.3375 17.1761 12 17.1667C13.3261 17.1667 14.5979 16.64 15.5356 15.7023C16.4732 14.7646 17 13.4928 17 12.1667C17 10.8407 16.4732 9.56888 15.5356 8.6312C14.5979 7.69352 13.3261 7.16773 12 7.16773ZM12 9.16773C12.3985 9.16039 12.7945 9.23253 13.1648 9.37994C13.5351 9.52735 13.8724 9.74708 14.1568 10.0263C14.4412 10.3055 14.6672 10.6386 14.8215 11.0061C14.9757 11.3736 15.0552 11.7682 15.0553 12.1667C15.0554 12.5653 14.976 12.9599 14.8219 13.3275C14.6677 13.695 14.4419 14.0282 14.1575 14.3075C13.8732 14.5868 13.536 14.8066 13.1658 14.9541C12.7955 15.1017 12.3995 15.1739 12.001 15.1667C11.2054 15.1667 10.4423 14.8507 9.87971 14.2881C9.3171 13.7254 9.00103 12.9624 9.00103 12.1667C9.00103 11.3711 9.3171 10.608 9.87971 10.0454C10.4423 9.4828 11.2054 9.16673 12.001 9.16673L12 9.16773ZM17.25 5.66773C16.9274 5.68065 16.6223 5.81788 16.3986 6.05071C16.1749 6.28353 16.05 6.59387 16.05 6.91673C16.05 7.2396 16.1749 7.54994 16.3986 7.78276C16.6223 8.01558 16.9274 8.15282 17.25 8.16573C17.5815 8.16573 17.8995 8.03404 18.1339 7.79962C18.3683 7.5652 18.5 7.24725 18.5 6.91573C18.5 6.58421 18.3683 6.26627 18.1339 6.03185C17.8995 5.79743 17.5815 5.66573 17.25 5.66573V5.66773Z" fill="white"/>
</g>
</svg>
