<svg width="24" height="25" viewBox="0 0 24 25" fill="none" xmlns="http://www.w3.org/2000/svg">
<g id="solar:cart-linear">
<g id="Group">
<path id="Vector" d="M3.86403 16.955C3.00603 13.523 2.57703 11.808 3.47803 10.654C4.37803 9.5 6.14803 9.5 9.68503 9.5H14.315C17.853 9.5 19.621 9.5 20.522 10.654C21.423 11.807 20.994 13.524 20.136 16.955C19.59 19.138 19.318 20.229 18.504 20.865C17.69 21.5 16.565 21.5 14.315 21.5H9.68503C7.43503 21.5 6.31003 21.5 5.49603 20.865C4.68203 20.229 4.40903 19.138 3.86403 16.955Z" stroke="#080609" stroke-width="1.5"/>
<path id="Vector_2" d="M19.5 10L18.79 7.395C18.516 6.39 18.379 5.888 18.098 5.509C17.8178 5.13246 17.4373 4.8424 17 4.672C16.56 4.5 16.04 4.5 15 4.5M4.5 10L5.21 7.395C5.484 6.39 5.621 5.888 5.902 5.509C6.18218 5.13246 6.56269 4.8424 7 4.672C7.44 4.5 7.96 4.5 9 4.5" stroke="#080609" stroke-width="1.5"/>
<path id="Vector_3" d="M9 4.5C9 4.23478 9.10536 3.98043 9.29289 3.79289C9.48043 3.60536 9.73478 3.5 10 3.5H14C14.2652 3.5 14.5196 3.60536 14.7071 3.79289C14.8946 3.98043 15 4.23478 15 4.5C15 4.76522 14.8946 5.01957 14.7071 5.20711C14.5196 5.39464 14.2652 5.5 14 5.5H10C9.73478 5.5 9.48043 5.39464 9.29289 5.20711C9.10536 5.01957 9 4.76522 9 4.5Z" stroke="#080609" stroke-width="1.5"/>
</g>
</g>
</svg>
