<svg width="65" height="44" viewBox="0 0 65 44" fill="none" xmlns="http://www.w3.org/2000/svg">
<g id="adidas svg" clip-path="url(#clip0_37_52)">
<path id="Vector" d="M32.608 37.9438C32.608 36.2136 34.016 34.8678 35.68 34.8678C37.344 34.8678 38.752 36.2777 38.752 37.9438C38.752 39.61 37.344 41.0199 35.68 41.0199C34.016 41.0199 32.608 39.6741 32.608 37.9438ZM45.216 37.9438C45.216 36.2136 46.624 34.8678 48.288 34.8678C50.0159 34.8678 51.36 36.2777 51.36 37.9438C51.36 39.61 49.952 41.0199 48.288 41.0199C46.624 41.0839 45.216 39.6741 45.216 37.9438ZM16.032 37.9438C16.032 36.2136 17.44 34.8678 19.104 34.8678C20.832 34.8678 22.176 36.2777 22.176 37.9438C22.176 39.61 20.768 41.0199 19.104 41.0199C17.376 41.0839 16.032 39.6741 16.032 37.9438ZM3.42395 37.9438C3.42395 36.2136 4.83195 34.8678 6.49595 34.8678C8.22395 34.8678 9.56795 36.2777 9.56795 37.9438C9.56795 39.61 8.15995 41.0199 6.49595 41.0199C4.83195 41.0839 3.42395 39.6741 3.42395 37.9438ZM28.896 32.4968H26.208V43.3269H28.896V32.4968ZM9.63195 43.3269H12.32V32.4968H9.63195V33.3939C8.73595 32.7531 7.64795 32.3686 6.43195 32.3686C3.35995 32.3686 0.863953 34.8678 0.863953 37.9438C0.863953 41.0839 3.35995 43.5191 6.43195 43.5191C7.64795 43.5191 8.73595 43.1346 9.63195 42.4938V43.3269ZM51.424 43.3269H54.112V32.4968H51.424V33.3939C50.528 32.7531 49.44 32.3686 48.224 32.3686C45.152 32.3686 42.656 34.8678 42.656 37.9438C42.656 41.0839 45.152 43.5191 48.224 43.5191C49.44 43.5191 50.528 43.1346 51.424 42.4938V43.3269ZM55.072 39.8023C55.136 41.9811 56.992 43.5191 60.1279 43.5191C62.688 43.5191 64.8 42.4297 64.8 39.9945C64.8 38.2643 63.84 37.303 61.664 36.8544L59.936 36.534C58.848 36.3418 58.08 36.0854 58.08 35.4446C58.08 34.7397 58.8479 34.4193 59.7439 34.4193C61.088 34.4193 61.664 35.1242 61.664 35.8932H64.352C64.224 33.7784 62.496 32.3686 59.7439 32.3686C56.928 32.3686 55.264 33.9066 55.264 35.9573C55.264 38.3924 57.248 38.841 58.976 39.1614L60.384 39.4178C61.408 39.61 61.856 39.9304 61.856 40.5072C61.856 41.0199 61.344 41.5966 60.1279 41.5966C58.3359 41.5966 57.824 40.6994 57.76 39.8663H55.072V39.8023ZM22.176 28.7799V33.3298C21.28 32.689 20.192 32.3045 18.976 32.3045C15.904 32.3045 13.408 34.8038 13.408 37.8798C13.408 41.0199 15.904 43.455 18.976 43.455C20.192 43.455 21.28 43.0705 22.176 42.4297V43.1987H24.864V28.7799H22.176ZM38.816 28.7799V33.3298C37.92 32.689 36.832 32.3045 35.616 32.3045C32.544 32.3045 30.048 34.8038 30.048 37.8798C30.048 41.0199 32.544 43.455 35.616 43.455C36.832 43.455 37.92 43.0705 38.816 42.4297V43.1987H41.504V28.7799H38.816ZM7.77595 25.5757L9.63195 28.7799H22.176L17.184 20.1286L7.77595 25.5757ZM28.896 31.4714V28.7799H38.816L28.256 10.5161L18.848 15.8991L26.208 28.7799V31.4714H28.896ZM42.784 28.7799H55.392L39.136 0.583191L29.728 6.03028L42.784 28.7799Z" fill="#B5B9C2"/>
</g>
<defs>
<clipPath id="clip0_37_52">
<rect width="64" height="43" fill="white" transform="translate(0.799988 0.583313)"/>
</clipPath>
</defs>
</svg>
