<svg width="69" height="46" viewBox="0 0 69 46" fill="none" xmlns="http://www.w3.org/2000/svg">
<g id="H&#38;M svg" clip-path="url(#clip0_37_48)">
<g id="Group">
<path id="Vector" fill-rule="evenodd" clip-rule="evenodd" d="M64.2109 1.70848C63.0888 2.23348 62.1911 1.70848 60.7698 4.55848C56.4309 13.5585 53.0646 20.8335 49.025 31.2585C49.1746 22.6335 50.6708 15.8085 51.5685 7.40848C51.7181 5.83348 51.9425 3.73348 51.9425 2.15848C51.9425 0.958483 50.6708 0.733483 48.2021 2.00848C46.8556 2.68348 45.2098 2.60848 44.5365 4.25848C41.8435 11.2335 35.6345 30.5835 32.7918 41.5335C32.1185 44.1585 34.662 44.6085 35.4848 41.9085C37.355 35.3835 41.6939 20.9085 44.3121 13.4835C44.0877 20.3085 42.2175 31.0335 43.0404 36.7335C43.3396 38.5335 44.9854 39.2835 45.8083 40.7835C46.4067 41.8335 47.3792 41.9835 47.9029 40.4835C50.4463 33.5835 55.3088 21.4335 60.0217 11.7585C59.124 16.0335 55.5332 34.1835 54.5607 41.4585C54.3363 42.8835 56.1317 42.9585 57.7027 45.1335C58.0767 45.6585 59.4232 46.1835 59.6477 44.9085C60.4705 40.5585 66.0063 12.3585 68.1009 3.43348C68.7742 0.883483 68.6246 -0.316517 64.2109 1.70848ZM28.2285 22.1835C30.0987 19.3335 30.6972 19.9335 31.146 19.0335C31.7445 17.9835 31.3704 16.9335 29.2758 17.1585C29.2758 17.1585 28.5277 17.2335 27.1064 17.3835C29.3506 11.6085 31.2956 6.65848 32.717 2.98348C33.2406 1.70848 33.3154 0.808483 32.4925 0.583483C31.6697 0.358483 29.2758 1.70848 27.7797 1.93348C27.3308 2.08348 26.8072 2.53348 26.6576 2.90848C24.4133 8.00848 22.3187 13.1835 20.2989 18.4335C17.9051 18.8085 15.1372 19.3335 12.0701 20.0835C14.3143 14.3835 16.5585 8.75848 18.728 3.35848C19.7753 0.733483 17.0074 0.433483 15.8853 3.13348C13.4914 8.98348 11.0976 14.9085 8.85338 20.8335C6.68396 21.3585 4.36493 21.9585 1.97109 22.7085C0.250517 23.2335 0.17571 23.6835 0.923785 24.7335C1.37263 25.3335 2.19551 25.2585 2.56955 25.7085C3.61685 26.7585 4.21531 28.1085 6.01069 28.2585C4.36493 32.6085 2.79397 37.0335 1.29782 41.4585C0.400132 44.1585 3.01839 44.7585 4.0657 41.8335C5.71146 37.1835 7.43204 32.4585 9.22742 27.8085C10.7236 27.4335 14.2395 26.6835 17.6059 26.0085C14.9876 33.2085 13.267 38.6835 12.5938 41.3085C12.4441 41.8335 12.6686 42.1335 12.8182 42.2835C13.7159 43.5585 14.5387 43.6335 15.6609 45.2085C15.9601 45.6585 16.5585 45.7335 17.0074 45.3585C17.157 45.2085 17.3066 44.9835 17.3814 44.8335C19.6257 38.0085 22.0943 31.1835 24.6378 24.4335C25.4606 24.2085 27.1812 23.7585 28.2285 22.1835Z" fill="#B5B9C2"/>
<path id="Vector_2" fill-rule="evenodd" clip-rule="evenodd" d="M30.0239 33.3586C29.8743 33.5086 29.6499 33.6586 29.5002 33.8836C29.2758 33.2836 29.1262 32.6086 28.9018 32.0086C29.5002 31.3336 30.0239 30.5836 30.4727 29.9086C32.4177 26.8336 28.6026 25.1086 26.882 27.0586C25.9843 28.1086 26.2087 29.1586 26.4331 30.0586L26.7324 31.1836C26.2835 31.6336 25.6851 32.3086 24.937 33.1336C23.0668 35.3086 23.5905 38.1586 25.6103 38.8336C26.8072 39.2086 28.0041 38.6836 28.9766 37.7836C29.0514 37.9336 29.0514 38.0836 29.1262 38.1586C29.6499 39.5086 31.2956 39.0586 30.6224 37.4836C30.5475 37.1836 30.3979 36.8086 30.2483 36.3586C30.5475 35.9836 30.8468 35.6086 31.146 35.1586C32.4177 33.3586 31.2956 32.3086 30.0239 33.3586ZM28.7522 29.1586C28.6026 29.3836 28.3781 29.5336 28.2285 29.7586C28.1537 29.6086 28.1537 29.4586 28.0789 29.3086C27.5552 27.2086 30.0239 27.8086 28.7522 29.1586ZM27.4804 35.6836C26.7324 36.1336 26.1339 35.6836 27.1812 34.2586C27.3308 34.0336 27.5552 33.8086 27.7049 33.5836C27.8545 34.1086 28.0041 34.6336 28.2285 35.1586C27.9293 35.3086 27.7049 35.5336 27.4804 35.6836Z" fill="#B5B9C2"/>
</g>
</g>
<defs>
<clipPath id="clip0_37_48">
<rect width="68" height="45" fill="white" transform="translate(0.399994 0.583313)"/>
</clipPath>
</defs>
</svg>
