<svg width="202" height="39" viewBox="0 0 202 39" fill="none" xmlns="http://www.w3.org/2000/svg">
<g id="Patagonia svg" clip-path="url(#clip0_37_66)">
<g id="Group">
<g id="Group_2">
<g id="Group_3">
<path id="Vector" d="M202 5.09603C202 6.76688 200.681 8.10357 198.984 8.10357C197.287 8.10357 195.968 6.76688 195.968 5.09603C195.968 3.47291 197.287 2.13623 198.984 2.13623C200.728 2.13623 202 3.47291 202 5.09603ZM196.769 5.09603C196.769 6.43271 197.711 7.48296 199.031 7.48296C200.304 7.48296 201.246 6.43271 201.246 5.14377C201.246 3.80708 200.304 2.75683 198.984 2.75683C197.711 2.75683 196.769 3.80708 196.769 5.09603ZM198.56 6.67141H197.9V3.71161C198.183 3.66387 198.56 3.61613 199.031 3.61613C199.597 3.61613 199.832 3.71161 200.068 3.85482C200.209 3.99804 200.351 4.23673 200.351 4.52316C200.351 4.85734 200.115 5.09603 199.738 5.19151V5.23925C200.021 5.33472 200.162 5.57342 200.257 5.95533C200.351 6.38497 200.398 6.57593 200.492 6.71914H199.738C199.644 6.62367 199.597 6.33723 199.502 6.00306C199.455 5.66889 199.267 5.52568 198.89 5.52568H198.56V6.67141ZM198.56 5.00055H198.89C199.267 5.00055 199.55 4.85734 199.55 4.5709C199.55 4.28447 199.361 4.14126 198.937 4.14126C198.748 4.14126 198.654 4.14126 198.56 4.18899V5.00055Z" fill="#B5B9C2"/>
</g>
</g>
<g id="Group_4">
<path id="Vector_2" d="M76.7752 22.377C76.7752 24.0479 76.351 25.671 74.183 25.671C72.015 25.671 71.4495 23.6182 71.4495 21.8042C71.4495 19.6082 73.099 17.9373 75.4084 17.9373H76.4924C76.7752 17.9373 76.7752 18.2238 76.7752 18.2238V22.377ZM86.2955 26.9122H85.3529C85.0701 26.9122 85.2115 26.4826 85.2115 26.4826V14.4047C85.2115 9.05794 81.8181 6.81422 76.6338 6.81422C74.89 6.81422 73.099 7.10065 71.3552 7.76899C71.3552 7.76899 70.9311 8.05543 71.2138 7.48256C71.3552 7.19613 71.3552 6.9097 71.3552 6.9097C71.3552 6.9097 71.4966 6.62326 71.2138 6.48005C70.9311 6.48005 69.1872 5.90718 68.9045 5.81171C68.6217 5.66849 68.6217 5.95492 68.6217 5.95492C68.6217 5.95492 66.0295 12.5429 65.8881 12.8293C65.7467 13.1157 65.8881 13.1157 65.8881 13.1157C65.8881 13.1157 68.1975 13.9273 68.4803 13.9273C68.6217 14.0705 68.7631 13.9273 68.7631 13.9273C69.9885 12.3996 71.2138 11.4449 73.806 11.4449C75.8326 11.4449 76.7752 12.2564 76.7752 14.0705V14.7388C76.7752 15.0253 76.6338 15.0253 76.6338 15.0253L70.5069 15.1685C66.4066 15.1685 63.0132 18.176 63.0132 23.4273C63.0132 27.676 66.1238 30.3017 70.3655 30.3017C72.8163 30.3017 74.7015 29.2037 76.6338 27.8192C76.6338 27.8192 76.9166 27.2464 77.058 27.8192C77.058 28.2489 77.1994 28.774 77.3408 29.3469C77.4822 29.6333 77.6235 29.6333 77.6235 29.6333H86.3426C86.3426 29.6333 86.7668 29.7765 86.7668 29.3469V27.1509C86.6725 27.1986 86.6725 26.9122 86.2955 26.9122Z" fill="#B5B9C2"/>
<path id="Vector_3" d="M61.976 25.5285C61.976 25.242 61.6932 25.5285 61.6932 25.5285C61.1276 25.8149 61.0334 25.8149 60.3264 25.8149C59.6666 25.8149 58.4412 25.5285 58.4412 24.0486V11.2546C58.4412 11.2546 58.4412 11.1114 58.724 11.1114H61.6932C61.6932 11.1114 61.8346 11.1114 61.976 10.8249C61.976 10.5385 62.5415 7.8174 62.5415 7.8174C62.5415 7.8174 62.6829 7.53097 62.4001 7.53097H58.724C58.724 7.53097 58.4412 7.67418 58.4412 7.38775V5.7169C58.4412 4.76212 58.5826 3.52092 58.724 2.42293C58.724 2.42293 58.8654 2.27971 58.5826 2.1365C58.2998 2.1365 56.556 1.70685 56.2732 1.70685C55.9904 1.70685 55.9904 1.85006 55.9904 1.85006C54.4823 5.14403 51.5131 7.48323 47.9783 8.438C47.9783 8.438 47.8369 8.58122 47.8369 8.72444V10.7772C47.8369 11.0636 47.9783 11.0636 47.9783 11.0636H49.8635C50.1463 11.0636 50.1463 11.2068 50.1463 11.2068V24.4305C50.1463 28.2973 51.6545 30.3501 55.849 30.3501C59.6666 30.3501 59.9022 30.2068 62.7772 28.1541C62.7772 28.1541 63.06 28.0109 62.9186 27.8677C62.7772 27.629 62.0702 25.8149 61.976 25.5285Z" fill="#B5B9C2"/>
<path id="Vector_4" d="M38.8353 18.2715V22.377C38.8353 24.0479 38.4112 25.671 36.3846 25.671C34.0752 25.671 33.5096 23.6182 33.5096 21.8042C33.5096 19.6082 35.2534 17.9373 37.4686 17.9373H38.6939C38.9767 17.9851 38.8353 18.2715 38.8353 18.2715ZM48.497 26.9122H47.413C47.2716 26.9122 47.2716 26.4826 47.2716 26.4826V14.4047C47.2716 9.05794 43.8783 6.81422 38.6939 6.81422C36.9501 6.81422 35.1592 7.10065 33.4154 7.76899C33.4154 7.76899 33.1326 8.05543 33.274 7.48256C33.4154 7.19613 33.5568 6.9097 33.5568 6.9097C33.5568 6.9097 33.6981 6.62326 33.4154 6.48005C32.9912 6.48005 31.3888 5.90718 30.9646 5.81171C30.8232 5.66849 30.8232 5.95492 30.8232 5.95492C30.8232 5.95492 28.0897 12.5429 27.9483 12.8293C27.8069 13.1157 28.0897 13.1157 28.0897 13.1157C28.0897 13.1157 30.2576 13.9273 30.5404 14.0705C30.8232 14.0705 30.8232 13.9273 30.8232 13.9273C32.0486 12.3996 33.274 11.4449 35.8661 11.4449C37.8927 11.4449 38.8353 12.2564 38.8353 14.0705V14.7388V15.0253L32.6141 15.3594C28.5138 15.3594 25.2618 18.2715 25.2618 23.475C25.2618 27.7238 28.3724 30.3494 32.4728 30.3494C34.9235 30.3494 36.9501 29.2514 38.7411 27.867C38.7411 27.867 39.0239 27.2941 39.1652 27.867C39.1652 28.2966 39.448 28.8218 39.5894 29.3946C39.5894 29.6811 39.7308 29.6811 39.7308 29.6811H48.4028C48.4028 29.6811 48.8269 29.8243 48.8269 29.3946V27.1986C48.7798 27.1986 48.7798 26.9122 48.497 26.9122Z" fill="#B5B9C2"/>
<path id="Vector_5" d="M167.924 6.81448C170.234 6.81448 173.91 5.71649 173.91 2.94764C173.91 0.608448 171.742 0.0355835 169.81 0.0355835C167.783 0.0355835 164.767 1.70644 164.767 3.90242C164.814 5.8597 166.039 6.81448 167.924 6.81448Z" fill="#B5B9C2"/>
<path id="Vector_6" d="M94.3075 12.7342C94.3075 10.5382 94.9673 9.72669 96.6168 9.72669C100.01 9.72669 101.518 16.4578 101.518 18.9403C101.518 21.1362 100.859 21.9478 99.0676 21.9478C95.6271 21.9478 94.3075 15.2166 94.3075 12.7342ZM97.8422 30.7795C97.9836 30.6362 98.125 30.6362 98.125 30.6362C99.6332 31.591 100.859 32.3071 100.859 34.3599C100.859 35.4578 100.199 36.0307 99.1147 36.0307C97.748 36.0307 97.2295 34.7895 97.2295 33.6915C97.1353 32.689 97.4181 31.2091 97.8422 30.7795ZM108.965 15.7895C108.965 10.5382 104.629 9.20156 104.629 8.19905C104.629 7.62619 104.912 7.24428 105.43 7.24428C106.373 7.10106 106.514 7.24428 106.938 7.53071C106.938 7.53071 107.08 7.81714 107.221 7.38749C107.221 7.24428 108.022 3.95031 108.164 3.80709C108.164 3.37744 107.881 3.52066 107.881 3.52066C107.457 3.37744 106.938 3.37744 106.373 3.37744C103.922 3.37744 103.121 4.04578 102.555 5.71664C102.555 5.71664 102.131 6.81463 102.131 7.24428C101.99 7.53071 101.848 7.38749 101.848 7.38749C100.623 7.24428 99.2561 6.81463 96.9468 6.81463C91.9038 6.81463 86.6252 9.72669 86.6252 16.1714C86.6252 20.7066 90.4428 23.3322 94.2132 24.0006C94.2132 24.0006 94.873 24.1438 94.2132 24.287C93.1292 24.7166 90.6784 26.1011 87.9449 26.483C87.9449 26.483 87.6621 26.6262 87.8035 26.9126C87.9449 27.0558 88.6047 28.9654 88.7461 29.2518C88.8875 29.5382 89.1703 29.5382 89.1703 29.5382C90.3957 29.2518 94.0718 29.5382 94.7316 29.6815C95.2972 29.6815 94.7316 29.8247 94.7316 29.8247C92.8464 30.1111 90.5371 31.591 90.5371 33.6915C90.5371 36.5558 93.1763 37.7493 96.2869 38.0835H100.576C103.781 37.6538 108.211 36.0784 108.211 32.0207C108.211 27.1991 100.623 26.2443 96.9468 25.8146C96.3812 25.8146 96.9468 25.6714 96.9468 25.6714C102.602 24.287 108.965 22.8071 108.965 15.7895Z" fill="#B5B9C2"/>
<path id="Vector_7" d="M12.9137 26.9127C10.7457 26.9127 10.0387 25.2418 10.0387 23.3323V12.2092C10.0387 11.9227 10.3215 11.7795 10.3215 11.7795L11.4055 11.6363C12.7723 11.6363 16.8255 12.066 16.8255 20.1815C16.8255 25.2896 15.6001 26.9127 12.9137 26.9127ZM15.7415 6.8147C13.7149 6.8147 12.2067 7.62625 10.1801 8.86746C10.1801 8.86746 10.0387 9.01068 10.0387 8.72425V7.05339C10.0387 6.76696 9.75595 6.91017 9.75595 6.91017L0.282781 9.44033C0.282781 9.44033 0 9.44033 0 9.72676V9.7745V9.82223V9.86997V9.91771V9.96545V10.0132V10.0609V10.1087V10.1564V10.2041V10.2519V10.2996V10.3474V10.3951V10.4428V10.4906V10.5383V10.5861V10.6338V10.6815V10.7293V10.777V10.8247V10.8725V10.9202V10.968V11.0157V11.0634V11.1112V11.1589V11.2067V11.2544V11.3021V11.3499V11.3976V11.4454V11.4931V11.5408V11.5886V11.6363V11.684V11.7318V11.7795V11.8273V11.875V11.9227V11.9705C0 12.2569 0.282781 12.2569 0.282781 12.2569L1.36678 11.9705C1.36678 11.9705 1.64956 11.8273 1.64956 12.1137V33.7393C1.64956 33.7393 1.64956 34.0258 1.36678 34.0258H0.282781C0.282781 34.0258 0 34.0258 0 34.3122V34.3599V34.4077V34.4554V34.5031V34.5509V34.4554V34.5031V34.5509V34.5986V34.6464V34.6941V34.7418V34.7896V34.8373V34.8851V34.9328V34.9805V35.0283V34.9328V34.9805V35.0283V35.076V35.1237V35.1715V35.2192V35.267V35.3147V35.3624V35.4102V35.4579V35.5057V35.5534V35.6011V35.6489V35.6966V35.7443V35.7921V35.8398V35.8876V35.9353V35.983V36.0308V36.0785V36.1263V36.174V36.2217V36.2695V36.3172V36.365V36.4127V36.4604V36.5082V36.5559C0 36.8423 0.424172 36.8423 0.424172 36.8423H12.7723C12.7723 36.8423 13.0551 36.6991 13.0551 36.5559V34.3599C13.0551 34.0735 12.7723 34.0735 12.7723 34.0735H10.3215C10.0387 34.0735 10.0387 33.7871 10.0387 33.7871V29.6815C10.0387 29.5383 10.1801 29.5383 10.1801 29.5383C11.4055 30.2067 13.1493 30.3499 14.5161 30.3499C21.3028 30.3499 25.2618 24.0006 25.2618 17.6991C25.2618 11.2544 21.0672 6.8147 15.7415 6.8147Z" fill="#B5B9C2"/>
<path id="Vector_8" d="M161.703 26.9126H160.478C160.195 26.9126 160.336 26.7694 160.336 26.7694V13.3071C160.336 10.8247 159.535 6.86237 153.691 6.86237C150.581 6.86237 148.271 8.6287 145.962 10.4428C145.962 10.4428 145.82 10.7292 145.82 10.2996V7.1488C145.82 6.86237 145.538 7.00558 145.538 7.00558L135.876 9.63121C135.876 9.63121 135.734 9.48799 135.734 9.77443V12.1136C135.734 12.4001 135.876 12.2568 135.876 12.2568C135.876 12.2568 136.677 11.9704 137.101 11.8272C137.384 11.8272 137.243 12.1136 137.243 12.1136V26.8171C137.243 26.8171 137.384 26.9604 137.101 26.9604H135.876C135.876 26.9604 135.734 26.9604 135.734 27.2468V29.4428C135.734 29.8724 135.876 29.7292 135.876 29.7292H147.281C147.281 29.7292 147.423 29.7292 147.423 29.586V27.2468C147.423 26.9604 147.281 26.9604 147.281 26.9604H145.773C145.632 26.9604 145.632 26.8171 145.632 26.8171V14.2619C145.632 14.1186 145.773 13.9754 145.773 13.9754C146.857 13.0207 147.941 12.3046 149.449 12.3046C150.675 12.3046 151.9 12.8774 151.9 14.2141V26.7217C151.9 26.7217 151.9 26.8649 151.759 26.8649H150.392C150.392 26.8649 150.109 26.8649 150.109 27.1513V29.4905C150.109 29.6337 150.251 29.6337 150.251 29.6337H161.656C161.656 29.6337 161.797 29.7769 161.797 29.3473V27.1513C161.797 26.9126 161.703 26.9126 161.703 26.9126Z" fill="#B5B9C2"/>
<path id="Vector_9" d="M188.709 22.377C188.709 24.0479 188.285 25.671 186.117 25.671C183.949 25.671 183.383 23.6182 183.383 21.8042C183.383 19.6082 185.033 17.9373 187.342 17.9373H188.426C188.709 17.9373 188.709 18.2238 188.709 18.2238V22.377ZM198.371 26.9122H197.287C197.145 26.9122 197.145 26.4826 197.145 26.4826V14.4047C197.145 9.05794 193.752 6.81422 188.568 6.81422C186.824 6.81422 185.033 7.10065 183.289 7.76899C183.289 7.76899 182.865 8.05543 183.148 7.48256C183.289 7.19613 183.43 6.9097 183.43 6.9097C183.43 6.9097 183.43 6.62326 183.148 6.48005C182.865 6.48005 181.121 5.90718 180.838 5.81171C180.556 5.66849 180.556 5.95492 180.556 5.95492C180.556 5.95492 177.963 12.5429 177.822 12.8293C177.681 13.1157 177.963 13.1157 177.963 13.1157C177.963 13.1157 180.131 13.9273 180.414 13.9273C180.556 14.0705 180.697 13.9273 180.697 13.9273C181.922 12.3996 183.148 11.4449 185.74 11.4449C187.766 11.4449 188.709 12.2564 188.709 14.0705V14.7388C188.709 15.0253 188.568 15.0253 188.568 15.0253L182.441 15.1685C178.34 15.1685 174.947 18.176 174.947 23.4273C174.947 27.676 178.058 30.3017 182.299 30.3017C184.75 30.3017 186.635 29.2037 188.568 27.8192C188.568 27.8192 188.85 27.2464 188.992 27.8192C188.992 28.2489 189.133 28.774 189.275 29.3469C189.416 29.6333 189.557 29.6333 189.557 29.6333H198.276C198.276 29.6333 198.701 29.7765 198.701 29.3469V27.1509C198.654 27.1986 198.654 26.9122 198.371 26.9122Z" fill="#B5B9C2"/>
<path id="Vector_10" d="M124.329 26.9127C119.71 26.9127 118.344 18.6539 118.344 15.3599C118.344 13.6891 118.344 10.2519 121.313 10.2519C126.073 10.2519 127.44 18.5107 127.44 21.8046C127.44 24.2871 126.78 26.9127 124.329 26.9127ZM122.821 6.8147C115.469 6.8147 109.907 11.3499 109.907 18.5107C109.907 25.9579 115.469 30.3499 122.821 30.3499C130.173 30.3499 135.876 25.9579 135.876 18.5107C135.876 11.3499 130.173 6.8147 122.821 6.8147Z" fill="#B5B9C2"/>
<path id="Vector_11" d="M174.994 27.199C174.994 26.9126 174.712 26.9126 174.712 26.9126H173.628C173.345 26.9126 173.486 26.7694 173.486 26.7694V7.10102C173.486 6.81459 173.204 6.9578 173.204 6.9578L163.542 9.58343C163.542 9.58343 163.4 9.58343 163.4 9.86986V12.0658C163.4 12.3523 163.683 12.2091 163.683 12.2091C163.683 12.2091 164.343 12.0658 164.909 11.9226C165.191 11.9226 165.05 12.2091 165.05 12.3523V26.8171C165.05 26.8171 165.191 26.9603 164.909 26.9603H163.542C163.542 26.9603 163.259 26.9603 163.259 27.2467V29.5859C163.259 29.8724 163.542 29.7292 163.542 29.7292H174.853C175.136 29.7292 174.994 29.4427 174.994 29.4427V27.199Z" fill="#B5B9C2"/>
</g>
</g>
</g>
<defs>
<clipPath id="clip0_37_66">
<rect width="202" height="38" fill="white" transform="translate(0 0.083313)"/>
</clipPath>
</defs>
</svg>
