<svg width="91" height="45" viewBox="0 0 91 45" fill="none" xmlns="http://www.w3.org/2000/svg">
<g id="PUMA svg" clip-path="url(#clip0_37_54)">
<g id="_x30_X-Modul-Lib_x5F_Desktop">
<g id="M-02-Footer_desktop">
<g id="puma_logo_footer">
<path id="Shape" d="M48.6711 0.37215C48.3784 0.413426 48.0856 1.44532 47.5001 2.02318C47.0819 2.43594 46.5801 2.43594 46.2873 2.88997C46.1618 3.05508 46.2455 3.38528 46.12 3.67421C45.8691 4.29335 45.0745 4.3759 45.0745 4.99504C45.0745 5.69673 45.7855 5.86183 46.371 6.35714C46.831 6.7699 46.9146 7.05883 47.4165 7.22393C47.8765 7.38904 48.5875 6.89373 49.2148 7.05883C49.7585 7.22393 50.2604 7.34776 50.3858 7.84307C50.5113 8.33838 50.3858 9.08134 49.7585 8.99879C49.5076 8.99879 48.5875 8.66858 47.5001 8.75114C46.0782 8.91624 44.5308 9.329 44.4053 10.8562C44.3635 11.723 45.4091 12.6723 46.371 12.5072C47.0819 12.3834 46.7055 11.5166 47.1237 11.1451C47.6674 10.6498 50.5113 12.92 53.1879 12.92C54.3171 12.92 55.1535 12.6311 55.9899 11.7643C56.0317 11.723 56.1572 11.5166 56.2827 11.5166C56.4081 11.5166 56.5754 11.6404 56.6172 11.6817C58.792 13.374 60.423 16.7586 68.2855 16.7999C69.4146 16.7999 70.6693 17.2952 71.7148 18.2446C72.6349 19.1114 73.1786 20.3909 73.6804 21.7117C74.5169 23.693 75.897 25.6329 78.0717 27.738C78.1972 27.8618 79.9537 29.2239 80.121 29.2652C80.121 29.2652 80.2882 29.5954 80.2464 29.7605C80.2046 31.0813 79.9955 34.7962 82.8812 34.9613C83.5921 35.0025 83.4249 34.5072 83.4249 34.177C83.4249 33.5579 83.2994 32.8562 83.6758 32.2371C84.1358 31.329 82.6721 30.9162 82.6721 28.935C82.7139 27.4491 81.4592 27.6967 80.7901 26.5823C80.4555 25.9631 80.0791 25.5504 80.0791 24.7661C80.2046 20.2671 79.0754 17.2952 78.5736 16.5935C78.1553 16.0157 77.7371 15.8506 78.1553 15.5616C80.5392 14.0344 81.0829 12.5898 81.0829 12.5898C82.3793 9.70048 83.4667 7.01755 85.0559 5.86183C85.3486 5.61418 86.1851 4.99504 86.6869 4.78866C88.1507 4.08697 88.9035 3.71549 89.3217 3.30273C89.949 2.6836 90.5345 1.32149 89.9072 0.495978C89.0708 -0.535917 87.7325 0.248323 87.1052 0.661081C82.7139 3.22018 82.0866 7.67797 80.581 10.2371C79.3682 12.3009 77.4444 13.8281 75.6879 13.9519C74.3496 14.0757 72.9277 13.7868 71.5475 13.1676C68.1182 11.6817 66.2362 9.82431 65.7762 9.45283C64.8561 8.75114 57.7046 1.85808 51.8914 1.56915C51.8914 1.56915 51.1804 0.124496 51.0131 0.124496C50.5949 0.0832198 50.1349 0.991287 49.8421 1.11511C49.4658 1.40405 48.9639 0.289599 48.6711 0.37215ZM23.16 41.4003C22.6163 41.4003 22.1981 40.9463 22.1563 40.4097V22.6611H16.134V42.2258C16.134 43.2164 16.9704 44.0007 17.8905 44.0007H28.304C29.3078 44.0007 30.0605 43.2164 30.0605 42.2258V22.7024H24.1637V40.451C24.1219 40.9875 23.7037 41.4003 23.16 41.4003ZM43.1507 22.7024H34.0754C33.0299 22.7024 32.1516 23.5691 32.1516 24.601V44.0007H38.0903V26.2521C38.0903 25.6742 38.5503 25.2615 39.094 25.2615C39.6795 25.2615 40.0977 25.6742 40.0977 26.2521V44.0419H46.0364V26.1695C46.0364 25.6742 46.4964 25.1789 47.0401 25.1789C47.5838 25.1789 48.0438 25.6329 48.0438 26.1695V43.9594H53.9825V24.5598C53.9825 23.4866 53.1042 22.6611 52.0587 22.6611H43.1507V22.7024ZM12.1609 38.6348H6.13861V44.0007H0.199951V22.7024H12.2446C13.2901 22.7024 14.1684 23.5691 14.1684 24.6423V36.7361C14.1684 37.8093 13.2901 38.6348 12.1609 38.6348ZM8.18787 26.2521C8.18787 25.6742 7.72783 25.2202 7.18415 25.2202H6.18043V35.9932H7.18415C7.72783 35.9932 8.18787 35.5804 8.18787 34.9613V26.2521ZM63.5596 44.0832V38.7586H61.5104V44.0832H55.5299V24.7661C55.5299 23.693 56.4081 22.9087 57.4537 22.9087H67.5327C68.5782 22.9087 69.4565 23.7755 69.4565 24.7661V44.0832H63.5596ZM63.5596 36.1583V26.4172C63.5596 25.9219 63.0996 25.4678 62.5559 25.4678C62.0122 25.4678 61.5522 25.9219 61.5522 26.4172V36.1995L63.5596 36.1583Z" fill="#B5B9C2"/>
<g id="Oval">
<path id="Vector" d="M74.8931 43.8356C73.262 43.8356 71.9656 42.5561 71.9656 40.9463C71.9656 39.3366 73.262 38.057 74.8931 38.057C76.5241 38.057 77.8206 39.3366 77.8206 40.9463C77.8206 42.5561 76.5241 43.8356 74.8931 43.8356ZM74.8931 38.511C73.513 38.511 72.4256 39.6255 72.4256 40.9463C72.4256 42.2671 73.5548 43.3816 74.8931 43.3816C76.2314 43.3816 77.3606 42.2671 77.3606 40.9463C77.3606 39.6255 76.2732 38.511 74.8931 38.511Z" fill="#B5B9C2"/>
</g>
<g id="Group">
<path id="Vector_2" d="M74.0152 39.7492H74.9771C75.1862 39.7492 75.3535 39.7905 75.479 39.9143C75.6462 40.0381 75.7299 40.2032 75.7299 40.4509C75.7299 40.7811 75.5626 41.0288 75.2698 41.1526L75.8553 42.267H75.3953L74.8935 41.1939H74.4334V42.267H74.057V39.7492H74.0152ZM74.3916 40.8637H74.9771C75.1026 40.8637 75.228 40.8224 75.3117 40.7398C75.3953 40.6573 75.4371 40.5747 75.4371 40.4509C75.4371 40.3271 75.3953 40.2032 75.3117 40.162C75.228 40.1207 75.1444 40.0794 75.0189 40.0794H74.4334V40.8637H74.3916Z" fill="#B5B9C2"/>
</g>
</g>
</g>
</g>
</g>
<defs>
<clipPath id="clip0_37_54">
<rect width="90" height="44" fill="white" transform="translate(0.199951 0.083313)"/>
</clipPath>
</defs>
</svg>
