<svg width="150" height="55" viewBox="0 0 150 55" fill="none" xmlns="http://www.w3.org/2000/svg">
<g id="Wrangler svg">
<g id="Group">
<g id="Mask group">
<mask id="mask0_37_42" style="mask-type:luminance" maskUnits="userSpaceOnUse" x="0" y="5" width="150" height="44">
<g id="Group_2">
<path id="Vector" d="M0 5.83301H150V48.333H0V5.83301Z" fill="white"/>
</g>
</mask>
<g mask="url(#mask0_37_42)">
<path id="Vector_2" fill-rule="evenodd" clip-rule="evenodd" d="M116.837 6.17219C117.557 6.17219 118.142 6.75302 118.142 7.46969C118.142 8.18386 117.557 8.76636 116.837 8.76636C116.492 8.7668 116.161 8.63063 115.916 8.38762C115.671 8.14461 115.533 7.81457 115.531 7.46969C115.531 6.75302 116.118 6.17219 116.837 6.17219ZM116.837 9.10886C117.273 9.10952 117.691 8.93736 118 8.6301C118.309 8.32284 118.484 7.90555 118.486 7.46969C118.485 7.25385 118.442 7.04028 118.358 6.84119C118.275 6.6421 118.153 6.46138 118 6.30938C117.847 6.15738 117.665 6.03707 117.465 5.95534C117.266 5.8736 117.052 5.83204 116.836 5.83302C115.928 5.83302 115.189 6.56469 115.189 7.46969C115.189 8.37219 115.928 9.10886 116.837 9.10886ZM116.508 6.63136C116.596 6.61269 116.686 6.60485 116.776 6.60803C117.058 6.60969 117.254 6.71219 117.254 6.94553C117.254 7.15219 117.072 7.29136 116.783 7.29136H116.508V6.63136ZM116.508 7.46469H116.764C117.005 7.47136 117.119 7.56636 117.181 7.81552C117.239 8.04219 117.288 8.19469 117.318 8.24719H117.598C117.557 8.17719 117.506 8.00386 117.439 7.75219C117.384 7.56469 117.292 7.43386 117.132 7.38386V7.37886C117.35 7.31386 117.526 7.15469 117.526 6.92052C117.527 6.85427 117.513 6.78864 117.484 6.72888C117.455 6.66912 117.413 6.61689 117.361 6.57636C117.233 6.47553 117.044 6.42803 116.756 6.42803C116.573 6.42803 116.374 6.44386 116.239 6.46553V8.24719H116.508V7.46469ZM149.677 11.8047C146.874 11.6297 144.812 12.7922 143.873 13.4664V11.748H137.819V34.2789H143.99V19.9839C144.871 17.6305 149.598 17.758 149.645 17.7614L150 17.773V11.8272L149.677 11.8047ZM120.796 23.0464C120.336 19.9722 122.694 18.1755 122.8 18.0997C124.172 17.0947 125.438 16.6897 126.572 16.8947C127.495 17.0597 128.105 17.6005 128.401 17.9264L120.796 23.0464ZM125.852 11.5147C125.671 11.508 120.91 11.443 117.575 15.323C117.35 15.5155 114.027 18.5564 115.256 25.308C115.292 25.4797 116.127 29.4497 118.635 31.648C118.735 31.7522 121.635 34.6872 126.797 34.7455C127.005 34.7539 132.24 34.9414 135.523 31.148L135.667 30.9805L135.568 30.7814L133.407 26.318L133.18 25.838L132.84 26.2464C132.818 26.2755 130.434 29.0964 127.302 29.3139H127.285L127.263 29.3172C127.159 29.3364 124.738 29.7205 122.981 27.6347L136.565 18.2797L136.785 18.1264L136.688 17.8772C136.663 17.8072 133.94 11.163 125.852 11.5147ZM107.393 6.34886L107.449 34.0005L107.451 34.3405H113.914V6.00719H107.394V6.34886H107.393ZM97.2333 23.9414C96.2475 24.8355 94.945 24.7914 94.93 24.7914C91.4042 24.6372 91.3492 21.383 91.3492 21.2464C91.3992 17.7214 94.7242 17.593 95.0075 17.5864C98.0217 17.9539 98.3425 20.7989 98.3683 21.0739C98.3117 22.3364 97.9308 23.3022 97.2333 23.9422V23.9414ZM91.6275 12.0072C87.3417 13.543 85.7858 17.7089 85.7233 17.8864C83.8483 22.2764 86.4442 26.1347 87.1775 27.0947L85.0817 29.5505L84.8608 29.813L85.1292 30.0314L89.565 33.6247L89.8525 33.8622L90.0625 33.5522C92.1325 30.5272 95.21 30.8439 95.3433 30.8589C97.135 30.9672 98.2942 31.9822 98.3067 31.9939C101.753 34.6022 100.32 38.4705 100.257 38.6372C98.5233 42.6155 94.93 42.2597 94.7808 42.2422H94.7408C91.7617 42.2422 90.1367 39.9197 90.1208 39.8964L89.8825 39.5547C89.8825 39.5522 89.5958 39.853 89.5958 39.853L85.8008 43.7372L85.5758 43.9622L85.7867 44.1955C90.0583 49.0814 95.445 48.3155 95.8225 48.2555C101.347 48.008 104.41 43.7122 104.535 43.528C107.92 39.2214 106.231 33.3422 106.16 33.0922C105.506 29.9755 102.788 27.5322 102.673 27.4297L102.643 27.3989L102.604 27.3847C102.556 27.358 102.521 27.3347 102.484 27.3097C103.993 25.8547 104.407 22.5864 104.421 22.4455C104.779 20.3164 103.971 17.9889 103.933 17.8889L103.929 17.8655L103.915 17.8422C103.797 17.6317 103.7 17.4097 103.627 17.1797H105.332L105.401 16.9289L106.686 12.233L106.803 11.8055H97.3433C93.9158 11.0522 91.7217 11.9655 91.6275 12.0072ZM76.7875 11.9239C74.4267 11.8805 72.5342 12.8489 71.6442 13.4114V11.748H65.41L65.4117 12.0897L65.5308 33.8864L65.5325 34.2247H71.5825V22.408C71.6892 19.3914 72.9133 18.9064 72.9258 18.9047L72.9533 18.8914L72.9858 18.8772C75.0275 17.7389 76.3317 18.4439 76.5133 18.5555L76.535 18.5772L76.5875 18.5989C78.3208 19.3572 78.0225 22.4572 78.0208 22.4855V34.2247H84.25V22.5214C84.25 18.3322 83.9992 17.2405 83.875 16.9564C82.41 11.9805 76.8417 11.9239 76.7875 11.9239ZM58.4858 26.5297C58.5008 27.1472 58.3175 27.6589 57.9433 28.0414C57.0992 28.8905 55.5775 28.908 55.5575 28.908C54.3275 28.8497 53.4408 28.5222 52.9425 27.933C52.6338 27.5728 52.4796 27.1054 52.5133 26.6322C52.6692 25.7464 53.0592 25.1155 53.6717 24.7514C54.9675 23.9905 56.8867 24.6347 56.9075 24.6389C58.5492 25.133 58.4908 26.4447 58.4858 26.5297ZM51.4958 11.9347L50.0942 16.7455L49.9708 17.1789H58.7208V19.6347C53.3275 17.4097 49.885 20.168 49.7392 20.288C46.4925 22.5555 46.5742 26.313 46.58 26.4747L46.5817 26.4339C46.2758 29.9972 49.1533 32.3172 49.275 32.4105C51.0717 33.958 53.1483 34.2655 53.2358 34.2789C55.765 34.7289 57.9667 33.6647 58.9567 33.068V34.168H64.3675V11.6897H51.57L51.4958 11.9347ZM48.9783 17.5855V11.508L48.6292 11.5155C45.8533 11.5805 43.9242 12.5972 43.0242 13.1839V11.7764H36.825L36.8233 12.1155L36.7383 33.8564V34.1939H43.11V20.5772C43.435 17.6272 48.5875 17.5855 48.635 17.5855H48.9767H48.9783ZM38.2108 6.29969H31.4417L31.3542 6.50803L26.1217 19.148L19.455 6.73969L19.1383 6.14802L18.8417 6.75136L12.6917 19.5472L7.12417 6.41803L7.03833 6.20969H0L0.189167 6.67719L11.9225 35.463L12.2208 36.1989L12.5517 35.473L19.2517 20.6647L26.375 35.5647L26.7192 36.2864L27.0042 35.5414L38.035 6.75969L38.21 6.29886L38.2108 6.29969Z" fill="#B5B9C2"/>
</g>
</g>
</g>
</g>
</svg>
